<svg width="27" height="31" viewBox="0 0 27 31" fill="none" xmlns="http://www.w3.org/2000/svg">
<path d="M13.5 28.875C12.4453 28.875 11.625 28.0547 11.625 27H9.75C9.75 29.1094 11.3906 30.75 13.5 30.75C15.5508 30.75 17.25 29.1094 17.25 27H15.375C15.375 28.0547 14.4961 28.875 13.5 28.875ZM25.7461 20.3789C24.1055 18.8555 22.875 17.2148 22.875 11.6484C22.875 7.01953 19.125 3.21094 14.4375 2.74219V1.6875C14.4375 1.21875 13.9688 0.75 13.5 0.75C12.9727 0.75 12.5625 1.21875 12.5625 1.6875V2.74219C7.81641 3.21094 4.06641 7.01953 4.06641 11.6484C4.06641 17.2148 2.83594 18.8555 1.19531 20.3789C0.375 21.1992 0.140625 22.3711 0.550781 23.4258C0.960938 24.4805 2.01562 25.125 3.1875 25.125H23.8125C24.9258 25.125 25.9805 24.4805 26.3906 23.4258C26.8008 22.3711 26.5664 21.1992 25.7461 20.3789ZM23.8125 23.25H3.1875C2.30859 23.25 1.89844 22.3125 2.48438 21.7266C4.53516 19.793 5.94141 17.625 5.94141 11.6484C5.94141 7.72266 9.33984 4.5 13.5 4.5C17.6016 4.5 21 7.72266 21 11.6484C21 17.625 22.4062 19.793 24.457 21.7266C25.043 22.3125 24.6328 23.25 23.8125 23.25Z" fill="white" fill-opacity="0.7"/>
</svg>
