<svg width="48" height="53" viewBox="0 0 48 53" fill="none" xmlns="http://www.w3.org/2000/svg">
<defs>
<clipPath id="clip0_1_3">
<rect width="47.48" height="52.04" fill="white"/>
</clipPath>
</defs>
<g clip-path="url(#clip0_1_3)">
<path d="M44.91 4.03H44.11V2.6C44.11 1.91 43.84 1.25 43.36 0.76C42.88 0.27 42.22 0 41.54 0H39.9C39.43 0 39.06 0.38 39.06 0.85V8.91C39.06 9.38 39.44 9.76 39.9 9.76H41.54C41.84 9.76 42.14 9.7 42.43 9.59V19.12C42.43 19.89 42.13 20.62 41.59 21.16C41.06 21.7 40.33 22.01 39.57 22.01H38.33C38.23 21.53 37.97 21.11 37.6 20.8C37.23 20.49 36.76 20.32 36.28 20.32H26.37C25.89 20.32 25.42 20.49 25.05 20.8C24.68 21.11 24.42 21.54 24.32 22.01H23.07C22.31 22.01 21.59 21.7 21.05 21.16C20.52 20.62 20.21 19.88 20.21 19.12V9.6C20.49 9.71 20.79 9.77 21.1 9.77H22.74C23.2 9.77 23.58 9.39 23.58 8.92V0.85C23.58 0.62 23.49 0.41 23.33 0.25C23.17 0.09 22.96 0 22.73 0H21.09C20.41 0 19.75 0.28 19.27 0.76C18.79 1.25 18.52 1.91 18.52 2.6V4.03H17.72C17.04 4.03 16.38 4.31 15.9 4.79C15.42 5.28 15.15 5.94 15.15 6.63V19.13C15.15 21.25 15.99 23.29 17.47 24.79C18.95 26.29 20.96 27.14 23.06 27.14H24.31C24.4 27.62 24.66 28.06 25.03 28.38C25.41 28.69 25.88 28.87 26.36 28.87H27.1V31.01C27.1 31.5 27.27 31.98 27.57 32.35C27.88 32.73 28.3 32.99 28.78 33.09V46.44C28.78 46.7 28.57 46.92 28.31 46.92H20.1C19.84 46.92 19.63 46.7 19.63 46.44V35.28C19.63 33.8 19.05 32.37 18.01 31.32C16.97 30.27 15.57 29.68 14.1 29.68H12.41C11.61 27.81 10.01 26.43 8.07001 25.93C6.13001 25.43 4.06001 25.87 2.48001 27.12C0.900005 28.37 -0.00999473 30.29 5.26797e-06 32.32C0.0100053 34.35 0.960005 36.26 2.55001 37.49C4.15001 38.72 6.22001 39.13 8.15001 38.6C10.09 38.07 11.67 36.66 12.44 34.79H14.1C14.36 34.79 14.57 35.01 14.57 35.27V46.43C14.57 47.91 15.15 49.34 16.19 50.39C17.23 51.44 18.63 52.03 20.1 52.03H28.31C29.78 52.03 31.18 51.44 32.22 50.39C33.26 49.34 33.84 47.92 33.84 46.43V33.08C34.32 32.98 34.74 32.72 35.05 32.34C35.36 31.96 35.53 31.48 35.53 30.99V28.85H36.27C36.76 28.85 37.23 28.68 37.61 28.36C37.99 28.05 38.24 27.61 38.33 27.12H39.57C41.67 27.12 43.67 26.27 45.16 24.77C46.64 23.27 47.48 21.23 47.48 19.11V6.64C47.48 5.95 47.21 5.29 46.73 4.8C46.25 4.31 45.59 4.04 44.91 4.04V4.03ZM41.54 8.06H40.74V1.71H41.54C42.03 1.71 42.43 2.11 42.43 2.61V7.16C42.43 7.66 42.03 8.06 41.54 8.06ZM20.21 2.6C20.21 2.1 20.61 1.7 21.1 1.7H21.9V8.05H21.1C20.61 8.05 20.21 7.65 20.21 7.15V2.6ZM16.84 19.13V6.64C16.84 6.14 17.24 5.74 17.73 5.74H18.53V19.13C18.53 20.35 19.01 21.52 19.86 22.38C20.71 23.24 21.86 23.73 23.07 23.73H24.28V25.44H23.07C21.42 25.44 19.84 24.77 18.67 23.59C17.5 22.41 16.85 20.81 16.85 19.14L16.84 19.13ZM6.47001 37.13C5.20001 37.13 3.98001 36.62 3.08001 35.71C2.18001 34.8 1.68001 33.57 1.68001 32.28C1.68001 30.99 2.18001 29.76 3.08001 28.85C3.98001 27.94 5.20001 27.43 6.47001 27.43C7.74001 27.43 8.96001 27.94 9.86001 28.85C10.76 29.76 11.26 30.99 11.26 32.28C11.26 33.57 10.75 34.8 9.86001 35.71C8.96001 36.62 7.74001 37.13 6.47001 37.13ZM28.31 50.33H20.1C19.08 50.33 18.1 49.92 17.38 49.19C16.66 48.46 16.25 47.47 16.25 46.44V35.28C16.25 34.7 16.02 34.14 15.62 33.73C15.22 33.32 14.67 33.09 14.09 33.09H12.88C12.96 32.52 12.95 31.95 12.87 31.38H14.1C15.12 31.38 16.1 31.79 16.82 32.52C17.54 33.25 17.95 34.24 17.95 35.27V46.43C17.95 47.01 18.18 47.57 18.58 47.98C18.98 48.39 19.53 48.62 20.11 48.62H28.32C28.89 48.62 29.44 48.39 29.85 47.98C30.25 47.57 30.48 47.01 30.48 46.43V33.12H32.16V46.43C32.16 47.46 31.75 48.45 31.03 49.18C30.31 49.91 29.33 50.32 28.31 50.32V50.33ZM36.68 26.74C36.68 26.97 36.49 27.16 36.27 27.16H34.68C34.21 27.16 33.84 27.54 33.84 28.01V31C33.84 31.23 33.65 31.42 33.43 31.42H29.21C28.98 31.42 28.8 31.23 28.8 31V28.01C28.8 27.78 28.71 27.57 28.55 27.41C28.39 27.25 28.18 27.16 27.95 27.16H26.36C26.13 27.16 25.95 26.97 25.95 26.74V22.46C25.95 22.23 26.14 22.04 26.36 22.04H36.27C36.5 22.04 36.68 22.23 36.68 22.46V26.74ZM45.78 19.14C45.78 20.81 45.12 22.41 43.96 23.59C42.79 24.77 41.21 25.44 39.56 25.44H38.36V23.73H39.56C40.76 23.73 41.92 23.24 42.77 22.38C43.62 21.52 44.1 20.35 44.1 19.13V5.74H44.9C45.39 5.74 45.79 6.14 45.79 6.64V19.14H45.78ZM7.74001 29.4C6.86 29 5.84 29.04 4.99001 29.51C4.14001 29.98 3.55001 30.82 3.40001 31.78C3.25001 32.75 3.55001 33.73 4.21001 34.44C4.88001 35.15 5.83001 35.51 6.79001 35.41C7.75001 35.31 8.61001 34.76 9.12001 33.92C9.63001 33.09 9.72001 32.06 9.37001 31.15C9.08001 30.37 8.49001 29.74 7.73001 29.4H7.74001ZM7.77001 32.86C7.58001 33.3 7.18001 33.61 6.71001 33.69C6.24001 33.77 5.76001 33.61 5.44001 33.26C5.11001 32.91 4.98001 32.42 5.08001 31.95C5.18001 31.48 5.51001 31.1 5.96001 30.92C6.31001 30.78 6.70001 30.79 7.05001 30.95C7.39001 31.11 7.66001 31.39 7.80001 31.75C7.93001 32.11 7.92001 32.5 7.77001 32.85V32.86Z" fill="white"/>
</g>
</svg>
