<svg width="80" height="80" viewBox="0 0 80 80" fill="none" xmlns="http://www.w3.org/2000/svg">
<g clip-path="url(#clip0_1_22)">
<path d="M4.11429 21.9429V13.0286C4.11429 7.99327 7.99327 4.11429 13.0286 4.11429H21.9429C23.079 4.11429 24 3.19327 24 2.05714C24 0.921014 23.079 0 21.9429 0H13.0286C5.72101 0 0 5.72101 0 13.0286V21.9429C0 23.079 0.921014 24 2.05714 24C3.19327 24 4.11429 23.079 4.11429 21.9429Z" fill="#0000FF"/>
<path d="M75.8857 21.9429V13.0286C75.8857 7.99327 72.0067 4.11429 66.9714 4.11429H58.0571C56.921 4.11429 56 3.19327 56 2.05714C56 0.921014 56.921 0 58.0571 0H66.9714C74.279 0 80 5.72101 80 13.0286V21.9429C80 23.079 79.079 24 77.9429 24C76.8067 24 75.8857 23.079 75.8857 21.9429Z" fill="#0000FF"/>
<path d="M4.11429 58.0571V66.9714C4.11429 72.0067 7.99327 75.8857 13.0286 75.8857H21.9429C23.079 75.8857 24 76.8067 24 77.9429C24 79.079 23.079 80 21.9429 80H13.0286C5.72101 80 0 74.279 0 66.9714V58.0571C0 56.921 0.921014 56 2.05714 56C3.19327 56 4.11429 56.921 4.11429 58.0571Z" fill="#0000FF"/>
<path d="M75.8857 58.0571V66.9714C75.8857 72.0067 72.0067 75.8857 66.9714 75.8857H58.0571C56.921 75.8857 56 76.8067 56 77.9429C56 79.079 56.921 80 58.0571 80H66.9714C74.279 80 80 74.279 80 66.9714V58.0571C80 56.921 79.079 56 77.9429 56C76.8067 56 75.8857 56.921 75.8857 58.0571Z" fill="#0000FF"/>
<path d="M21.7544 30.213V35.9306C21.7544 37.114 22.6498 38.0734 23.7544 38.0734C24.859 38.0734 25.7544 37.114 25.7544 35.9306V30.213C25.7544 29.0296 24.859 28.0702 23.7544 28.0702C22.6498 28.0702 21.7544 29.0296 21.7544 30.213Z" fill="#0000FF"/>
<path d="M54.7368 30.213V35.9306C54.7368 37.114 55.6323 38.0734 56.7368 38.0734C57.8414 38.0734 58.7368 37.114 58.7368 35.9306V30.213C58.7368 29.0296 57.8414 28.0702 56.7368 28.0702C55.6323 28.0702 54.7368 29.0296 54.7368 30.213Z" fill="#0000FF"/>
<path d="M25.932 59.0829C29.8331 62.724 34.5579 64.5614 40 64.5614C45.4421 64.5614 50.1669 62.724 54.068 59.0829C54.918 58.2896 54.964 56.9574 54.1706 56.1074C53.3773 55.2574 52.0451 55.2115 51.1951 56.0048C48.0787 58.9134 44.3824 60.3509 40 60.3509C35.6176 60.3509 31.9213 58.9134 28.8049 56.0048C27.9549 55.2115 26.6227 55.2574 25.8294 56.1074C25.036 56.9574 25.082 58.2896 25.932 59.0829Z" fill="#0000FF"/>
<path d="M40 30.1754V44.9123C40 45.8554 39.539 46.3158 38.5913 46.3158H37.193C36.0303 46.3158 35.0877 47.2583 35.0877 48.4211C35.0877 49.5838 36.0303 50.5263 37.193 50.5263H38.5913C41.8633 50.5263 44.2105 48.1819 44.2105 44.9123V30.1754C44.2105 29.0127 43.268 28.0702 42.1053 28.0702C40.9426 28.0702 40 29.0127 40 30.1754Z" fill="#0000FF"/>
</g>
<defs>
<clipPath id="clip0_1_22">
<rect width="80" height="80" fill="white"/>
</clipPath>
</defs>
</svg>
