<svg width="236" height="214" viewBox="0 0 236 214" fill="none" xmlns="http://www.w3.org/2000/svg">
<path d="M158.7 23.9C142.5 12.5 123.4 6.5 103.4 6.5C50.2996 6.5 7.09961 49.7 7.09961 102.8C7.09961 150.9 42.9996 191.9 90.5996 198.3C90.8996 198.3 91.0996 198.4 91.3996 198.4C91.7996 198.4 92.0996 198.4 92.4996 198.3C94.1996 202.8 98.1996 206.3 103.3 207C103.9 207.1 104.6 207.1 105.2 207.1C111.9 207.1 117.6 202.1 118.6 195.5C119.1 191.9 118.2 188.4 116 185.5C113.8 182.6 110.7 180.8 107.1 180.3C106.5 180.2 105.8 180.2 105.2 180.2C100.3 180.2 95.8996 182.9 93.4996 187C93.0996 186.8 92.6996 186.7 92.1996 186.7C50.3996 181 18.9996 145 18.9996 102.8C18.9996 56.2 56.8996 18.3 103.5 18.3C121 18.3 137.7 23.6 152 33.6C154.7 35.5 158.3 34.8 160.2 32.2C162.1 29.5 161.4 25.8 158.7 23.9ZM99.2996 192.8C99.6996 189.9 102.2 187.7 105.1 187.7C105.4 187.7 105.7 187.7 105.9 187.8C109.1 188.3 111.4 191.2 110.9 194.5C110.5 197.4 108 199.6 105.1 199.6C104.8 199.6 104.5 199.6 104.3 199.5C101.1 199 98.8996 196 99.2996 192.8Z" fill="white"/>
<path d="M196.699 179.2C195.499 179.2 194.199 178.8 193.199 177.9C190.999 176 190.799 172.6 192.699 170.4C208.799 152 217.699 128.3 217.699 103.8C217.699 78.8 208.499 54.9 191.899 36.3C189.899 34.1 190.099 30.7 192.299 28.8C194.499 26.8 197.899 27 199.799 29.2C218.199 49.7 228.299 76.2 228.299 103.8C228.299 130.9 218.499 157 200.599 177.4C199.599 178.6 198.199 179.2 196.699 179.2Z" fill="white"/>
<path d="M156.599 148C155.499 148 154.399 147.7 153.399 146.9C150.999 145.1 150.599 141.8 152.299 139.4C160.199 128.8 164.399 116.1 164.399 102.8C164.399 89.6 160.199 77 152.399 66.4C150.599 64 151.099 60.7 153.499 59C155.899 57.2 159.199 57.7 160.899 60.1C170.099 72.6 174.999 87.3 174.999 102.9C174.999 118.5 170.099 133.4 160.699 145.9C159.799 147.2 158.199 148 156.599 148Z" fill="white"/>
<path d="M180.6 44.4C178.7 42.1 175.4 41.8 173.1 43.7C170.8 45.6 170.5 48.9 172.4 51.2C184.4 65.7 191 84 191 102.9C191 128.5 178.9 152.6 158.5 167.9L132.9 136.9C142.3 128.6 148.2 116.6 148.2 103.1C148.2 96.8 146.9 90.8 144.6 85.4C145.8 83.7 146.7 81.6 147 79.4C148 72 142.9 65.2 135.5 64.1C134.9 64 134.2 64 133.6 64C126.9 64 121.2 69 120.2 75.6C119.7 79.2 120.6 82.7 122.8 85.6C125 88.5 128.1 90.3 131.7 90.8C132.3 90.9 133 90.9 133.6 90.9C134.8 90.9 135.9 90.7 137.1 90.4C138.6 94.3 139.4 98.5 139.4 102.9C139.4 122.8 123.2 139 103.3 139C95.3001 139 87.9001 136.4 82.0001 132C82.6001 130.7 83.1001 129.3 83.3001 127.9C83.8001 124.3 82.9001 120.8 80.7001 117.9C78.5001 115 75.4001 113.2 71.8001 112.7C71.2001 112.6 70.5001 112.6 69.9001 112.6C63.2001 112.6 57.5001 117.6 56.5001 124.2C55.5001 131.6 60.6001 138.4 68.0001 139.5C68.6001 139.6 69.3001 139.6 69.9001 139.6C71.9001 139.6 73.8001 139.2 75.5001 138.4C83.2001 144.4 92.8001 148 103.3 148C111.5 148 119.1 145.8 125.7 142L155 177.3C156 178.6 157.6 179.3 159.1 179.3C160.1 179.3 161.2 179 162.1 178.3C186.9 161.1 201.6 132.9 201.6 102.8C201.6 81.6 194.2 60.8 180.6 44.4ZM133.6 83.5C133.3 83.5 133 83.5 132.8 83.4C129.6 82.9 127.3 80 127.8 76.7C128.2 73.8 130.7 71.6 133.6 71.6C133.9 71.6 134.2 71.6 134.4 71.7C137.6 72.2 139.9 75.1 139.4 78.4C139 81.3 136.5 83.5 133.6 83.5ZM75.7001 127C75.3001 129.9 72.8001 132.1 69.9001 132.1C69.6001 132.1 69.3001 132.1 69.1001 132C65.9001 131.5 63.6001 128.6 64.1001 125.3C64.5001 122.4 67.0001 120.2 69.9001 120.2C70.2001 120.2 70.5001 120.2 70.7001 120.3C73.9001 120.8 76.1001 123.8 75.7001 127Z" fill="white"/>
</svg>
