<svg width="439" height="59" viewBox="0 0 439 59" fill="none" xmlns="http://www.w3.org/2000/svg">
<path d="M255.269 57.2416C252.249 57.2416 249.27 57.2416 246.15 57.2416C246.13 56.7578 246.11 56.295 246.11 55.8322C246.11 50.0262 246.11 44.2202 246.09 38.3932C246.09 36.9627 246.049 35.5112 245.909 34.0808C245.667 31.893 245.043 29.8104 243.292 28.401C241.017 26.5708 238.481 26.4446 235.924 27.6857C232.905 29.1793 231.516 31.872 231.194 35.2167C231.073 36.521 231.133 37.8673 231.133 39.1715C231.133 44.7461 231.133 50.2997 231.133 55.8743C231.133 56.295 231.133 56.7368 231.133 57.1996C227.973 57.1996 224.974 57.1996 221.834 57.1996C221.834 56.6526 221.834 56.1898 221.834 55.706C221.834 49.332 221.813 42.958 221.834 36.5841C221.854 34.3332 221.471 32.2085 220.344 30.2732C217.445 25.2876 210.622 25.8135 208.005 30.4415C206.918 32.3558 206.455 34.4173 206.475 36.6261C206.495 43.0001 206.475 49.3741 206.475 55.7481C206.475 56.2109 206.475 56.6947 206.475 57.2206C203.315 57.2206 200.295 57.2206 197.235 57.2206C197.235 44.3044 197.235 31.4723 197.235 18.6402C198.101 18.4088 204.12 18.3457 205.73 18.556C205.931 19.8813 206.153 21.2487 206.394 22.8685C207.481 21.3959 208.528 20.0917 209.997 19.2923C211.507 18.4719 213.118 18.0091 214.808 17.8618C216.459 17.7146 218.09 17.8198 219.72 18.2194C221.391 18.6191 222.88 19.4185 224.189 20.5755C225.477 21.7115 226.363 23.1419 227.128 24.8248C227.611 24.1937 228.034 23.6047 228.476 23.0578C230.046 21.1435 231.858 19.5868 234.173 18.7874C235.703 18.2615 237.293 17.988 238.924 17.967C241.661 17.9249 244.338 18.1984 246.895 19.3554C250.659 21.0804 252.954 24.1096 254.202 28.0854C254.967 30.5467 255.289 33.0921 255.289 35.6585C255.309 42.5163 255.289 49.3531 255.289 56.2109C255.329 56.5474 255.309 56.863 255.269 57.2416Z" fill="#0282A6"/>
<path d="M58.1808 57.2628C55.0808 57.2628 52.1017 57.2628 48.9816 57.2628C48.9816 56.7369 48.9816 56.2741 48.9816 55.7902C48.9615 48.9745 48.9615 42.1588 48.9413 35.3641C48.9413 33.4918 48.4582 31.7248 47.5524 30.105C46.1232 27.5175 43.2044 26.4447 40.4869 27.0968C37.1454 27.8962 35.1929 30.2102 34.3273 33.618C34.0253 34.7961 33.9448 35.9741 33.9448 37.1732C33.965 43.3789 33.9448 49.5845 33.9448 55.8113C33.9448 56.253 33.9448 56.6738 33.9448 57.2838C30.9053 57.3469 27.9261 57.3048 24.8262 57.3048C24.806 56.8 24.7859 56.3792 24.7859 55.9585C24.7859 49.5845 24.7859 43.2106 24.7859 36.8576C24.7859 34.7961 24.4437 32.7976 23.5379 30.9464C20.8204 25.2877 13.7348 25.8557 11.118 30.126C9.9907 31.9562 9.3063 33.9126 9.3063 36.1003C9.3063 42.6216 9.28616 49.1638 9.28616 55.6851C9.28616 56.1689 9.28616 56.6317 9.28616 57.0945C8.42059 57.389 2.18045 57.4942 0.207754 57.2628C-0.0136708 56.4003 -0.0941865 20.1759 0.147368 18.5771C2.90511 18.5771 5.68298 18.5771 8.56151 18.5771C8.78293 19.9655 9.00435 21.3118 9.2459 22.9527C12.0238 18.6613 15.9088 17.6305 20.2568 17.904C24.7255 18.1985 27.9664 20.4494 29.9793 24.8249C30.2611 24.4462 30.4825 24.1938 30.6838 23.9414C32.3345 21.6695 34.3072 19.8183 36.924 18.8716C38.5142 18.2826 40.185 18.0302 41.896 18.0092C44.5934 17.9881 47.2303 18.2406 49.7465 19.3975C53.4302 21.0804 55.6847 24.0255 56.9931 27.8962C57.899 30.5678 58.1808 33.3656 58.221 36.1634C58.3016 42.8529 58.2412 49.5425 58.2412 56.232C58.2412 56.5265 58.2009 56.842 58.1808 57.2628Z" fill="#47BCCA"/>
<path d="M134.613 23.1632C134.613 16.2423 134.613 9.36346 134.613 2.40047C137.753 2.40047 140.752 2.40047 143.832 2.40047C143.832 20.702 143.832 38.9404 143.832 57.2629C140.994 57.2629 138.196 57.2629 135.277 57.2629C135.096 55.6642 134.915 54.0865 134.714 52.3405C134.432 52.5508 134.21 52.677 134.069 52.8664C132.6 54.97 130.627 56.3794 128.312 57.2419C126.782 57.8099 125.192 58.0623 123.582 58.1254C119.395 58.2727 115.429 57.4943 111.846 55.0962C108.223 52.656 105.848 49.2902 104.58 44.9778C103.573 41.5699 103.473 38.0989 103.795 34.628C104.117 31.2201 105.063 27.9595 107.015 25.1406C109.35 21.7748 112.41 19.524 116.255 18.4721C118.147 17.9462 120.059 17.5886 122.032 17.5886C125.414 17.5886 128.554 18.4721 131.392 20.3864C132.479 21.1227 133.425 22.1324 134.613 23.1632ZM123.32 49.2061C129.319 49.2692 134.029 44.6202 134.049 37.9938C134.089 31.3042 129.46 26.5711 123.36 26.5711C117.201 26.5501 112.893 30.9256 112.833 37.7834C112.772 44.5781 117.402 49.2692 123.32 49.2061Z" fill="#47BCCA"/>
<path d="M290.737 23.3942C290.878 21.7113 290.999 20.1967 291.14 18.5979C294.059 18.5979 296.917 18.5979 299.775 18.5979C299.997 19.4814 300.057 55.6427 299.856 57.1363C299.031 57.3887 292.489 57.4308 291.22 57.1784C291.1 55.5796 290.959 53.9598 290.798 52.0666C290.476 52.4242 290.274 52.6345 290.113 52.8449C288.402 55.1799 286.168 56.6735 283.511 57.557C281.317 58.2933 279.102 58.6088 276.828 58.4195C270.89 57.8936 265.877 55.5586 262.576 50.0892C261.167 47.7541 260.362 45.2087 259.919 42.4951C259.516 40.0128 259.416 37.5516 259.677 35.0693C260.1 30.9251 261.348 27.1176 264.025 23.9201C266.3 21.2064 269.118 19.3973 272.46 18.4507C274.815 17.7775 277.19 17.4199 279.606 17.5671C283.913 17.8616 287.657 19.3762 290.335 23.1417C290.395 23.2048 290.476 23.2259 290.737 23.3942ZM279.787 49.6264C282.303 49.6684 284.578 48.9532 286.53 47.3334C290.274 44.22 291.603 38.4351 289.912 33.5967C288.302 28.9898 285.121 26.4444 280.431 26.2341C276.002 26.0237 272.44 27.7066 270.165 31.8507C269.219 33.5967 268.856 35.5321 268.816 37.4884C268.756 40.0549 269.219 42.5161 270.608 44.6828C272.782 48.1117 275.962 49.5422 279.787 49.6264Z" fill="#0282A6"/>
<path d="M101.339 41.3381C96.4276 41.3381 91.6367 41.3381 86.866 41.3381C82.0752 41.3381 77.2844 41.3381 72.413 41.3381C72.4332 42.6003 72.876 43.6311 73.4195 44.6198C74.7481 46.9758 76.8013 48.3011 79.237 48.9953C83.3434 50.1523 87.2888 49.5002 91.0731 47.5859C91.8582 47.1862 92.5426 46.5972 93.4081 46.0082C95.2802 47.9435 97.2126 49.9209 99.1652 51.9404C98.984 52.1718 98.8632 52.3611 98.7022 52.5084C95.9042 55.1379 92.6432 56.7367 88.9796 57.5992C85.5174 58.3985 82.0551 58.4827 78.5928 57.9147C74.4864 57.2205 70.8228 55.4535 67.904 52.298C65.9313 50.1733 64.5625 47.628 63.7573 44.7881C62.8716 41.6537 62.5496 38.4351 62.8918 35.1745C63.3145 31.2828 64.482 27.7066 66.8371 24.5933C69.1118 21.6061 72.0105 19.5866 75.513 18.4086C79.1363 17.1885 82.8401 17.0623 86.544 17.6092C90.751 18.2193 94.475 19.9863 97.273 23.4994C98.8834 25.5189 99.9301 27.8328 100.615 30.3993C101.54 33.9544 101.48 37.5306 101.339 41.3381ZM92.3413 33.3443C92.3614 33.0709 92.4017 32.9026 92.3614 32.7553C91.7978 30.0627 90.429 28.0222 87.9329 26.9072C85.155 25.6451 82.2966 25.582 79.398 26.3393C76.2578 27.1597 74.0637 29.1581 72.8156 32.2925C72.6949 32.6081 72.6546 32.9446 72.5539 33.3443C79.2369 33.3443 85.7388 33.3443 92.3413 33.3443Z" fill="#47BCCA"/>
<path d="M192.586 22.6162C190.895 24.7198 189.244 26.7393 187.654 28.7167C186.366 27.9383 185.198 27.0969 183.93 26.4658C181.877 25.4561 179.643 25.3509 177.408 25.435C176.06 25.4981 174.751 25.6875 173.523 26.3186C172.376 26.9076 171.631 27.7911 171.591 29.2005C171.571 30.6941 172.336 31.6618 173.544 32.3139C174.932 33.0712 176.442 33.3236 177.972 33.3867C180.347 33.4919 182.702 33.8074 185.017 34.3754C187.211 34.9224 189.224 35.8269 190.976 37.3205C193.15 39.1927 194.096 41.7171 194.337 44.557C194.901 51.3727 190.633 55.8745 185.44 57.5574C181.716 58.7564 177.952 58.7564 174.168 58.3778C169.236 57.8729 165.009 55.7062 161.506 52.0038C161.426 51.9197 161.385 51.8145 161.244 51.6041C162.694 49.4163 164.183 47.1865 165.653 44.9567C166.72 45.735 167.706 46.5554 168.793 47.2075C171.571 48.8904 174.59 49.9002 177.791 50.1736C179.663 50.3209 181.454 50.0685 183.105 49.0377C184.695 48.049 185.42 46.4713 185.118 44.8304C184.897 43.6945 184.212 43.0003 183.246 42.5796C181.696 41.9064 180.086 41.675 178.435 41.5698C175.053 41.3595 171.752 40.7494 168.652 39.1927C166.156 37.9516 164.123 36.1635 163.177 33.3657C161.828 29.4109 162.311 25.7295 164.948 22.4689C166.619 20.4284 168.813 19.2714 171.208 18.43C174.751 17.2099 178.375 17.1468 182.018 17.5464C185.883 17.9461 189.345 19.4397 192.284 22.1534C192.405 22.3006 192.445 22.4269 192.586 22.6162Z" fill="#0282A6"/>
<path d="M342.33 26.9284C339.975 26.9284 337.801 26.9284 335.506 26.9284C335.385 24.1516 335.466 21.4379 335.466 18.6191C337.74 18.6191 339.934 18.6191 342.29 18.6191C342.39 15.2743 342.269 12.0558 342.35 8.68997C345.369 8.20614 348.369 7.93267 351.509 7.61713C351.589 8.92137 351.549 10.0994 351.549 11.2774C351.549 12.4344 351.549 13.5914 351.549 14.7694C351.549 15.9685 351.549 17.1676 351.549 18.5139C352.696 18.598 353.783 18.556 354.891 18.556C356.038 18.556 357.185 18.556 358.333 18.556C359.44 18.556 360.547 18.556 361.715 18.556C361.715 21.3748 361.715 24.0885 361.715 26.9284C358.292 26.9284 354.951 26.9284 351.529 26.9284C351.509 27.4543 351.469 27.854 351.469 28.2326C351.469 33.1551 351.448 38.0776 351.469 43.0211C351.469 44.094 351.469 45.1668 351.871 46.1976C352.596 48.0488 353.944 48.8692 355.756 49.0585C357.085 49.2058 358.333 48.8061 359.561 48.3643C359.903 48.2381 360.265 48.1329 360.728 47.9646C361.574 50.6783 362.379 53.2868 363.224 56.0005C362.922 56.1477 362.64 56.337 362.339 56.4633C359.098 57.7044 355.776 57.9358 352.374 57.5361C348.892 57.1154 346.195 55.3483 344.302 52.2771C343.377 50.7835 342.853 49.0795 342.612 47.3546C342.39 45.7769 342.33 44.1571 342.31 42.5583C342.269 37.8252 342.29 33.113 342.29 28.3799C342.33 27.9802 342.33 27.5384 342.33 26.9284Z" fill="#0282A6"/>
<path d="M313.825 57.263C310.705 57.263 307.726 57.263 304.767 57.263C304.546 56.3374 304.465 20.3444 304.667 18.7036C305.492 18.4722 311.007 18.388 313.101 18.5984C313.322 19.8816 313.544 21.1859 313.785 22.7215C314.168 22.2587 314.409 21.9852 314.631 21.6907C316.624 18.935 319.341 17.7359 322.562 17.5466C324.997 17.3993 327.373 17.5887 329.688 18.5143C331.157 19.1033 332.767 20.0709 333.794 21.27C332.445 23.9626 331.077 26.7184 329.688 29.4531C329.023 29.0113 328.46 28.5906 327.856 28.2751C324.333 26.3608 320.831 26.6342 317.449 28.6116C315.778 29.6003 314.852 31.2832 314.288 33.1555C313.926 34.3545 313.805 35.5746 313.805 36.8158C313.826 43.1477 313.805 49.4796 313.805 55.7905C313.826 56.2533 313.825 56.674 313.825 57.263Z" fill="#0282A6"/>
<path d="M157.943 57.2625C154.903 57.2625 151.924 57.2625 148.885 57.2625C148.885 44.3252 148.885 31.451 148.885 18.4085C151.884 18.3244 154.883 18.3875 157.943 18.3665C157.943 31.3669 157.943 44.2411 157.943 57.2625Z" fill="#47BCCA"/>
<path d="M438.608 49.2687C433.515 49.2687 428.583 49.2687 423.571 49.2687C423.692 50.9096 424.537 51.9404 425.745 52.6556C427.517 53.6864 429.429 53.7705 431.321 53.2236C432.408 52.908 433.435 52.34 434.582 51.8352C435.407 52.7608 436.353 53.7915 437.36 54.9065C436.796 55.7269 435.87 56.2948 434.924 56.7576C431.583 58.3774 428.141 58.6088 424.658 57.3046C422.001 56.3159 420.149 54.4226 419.223 51.6669C418.156 48.4904 418.156 45.2929 419.586 42.2006C421.015 39.1083 423.491 37.4674 426.651 36.8363C428.604 36.4367 430.536 36.5839 432.448 37.1729C435.709 38.1827 437.581 40.5177 438.407 43.8624C438.769 45.5874 438.668 47.3545 438.608 49.2687ZM423.652 44.9563C427.134 44.9563 430.496 44.9563 433.898 44.9563C433.777 43.4838 433.092 42.453 431.925 41.843C429.811 40.7491 427.698 40.8332 425.665 42.0533C424.638 42.6634 423.913 43.589 423.652 44.9563Z" fill="#47BCCA"/>
<path d="M398.651 37.2991C400.604 37.2991 402.375 37.2991 404.348 37.2991C405.656 42.2006 406.985 47.1441 408.293 52.0245C409.521 47.1862 410.749 42.2637 412.017 37.2991C413.769 37.2991 415.439 37.2991 417.291 37.2991C415.278 44.1149 413.225 50.8254 411.172 57.6201C409.24 57.6201 407.327 57.6201 405.274 57.6201C403.1 50.9306 400.906 44.178 398.651 37.2991Z" fill="#47BCCA"/>
<path d="M379.388 29.1792C381.038 29.1792 382.488 29.1792 384.078 29.1792C384.078 29.6631 384.078 30.0838 384.078 30.5045C384.078 37.1099 384.078 43.7363 384.078 50.3417C384.078 50.5521 384.078 50.7414 384.078 50.9518C383.997 53.2447 384.903 53.9179 386.735 53.6444C386.835 53.6234 386.956 53.6654 387.117 53.6865C387.158 53.8758 387.218 54.0651 387.218 54.2544C387.218 55.2221 387.218 56.1687 387.218 57.1785C385.225 57.9358 383.313 57.9779 381.481 56.9681C380.233 56.2739 379.629 55.0749 379.468 53.6444C379.408 53.0974 379.408 52.5295 379.408 51.9615C379.408 44.7881 379.408 37.6148 379.408 30.4414C379.388 30.0628 379.388 29.6631 379.388 29.1792Z" fill="#47BCCA"/>
<path d="M396.337 57.494C394.726 57.494 393.196 57.494 391.687 57.494C391.445 56.6105 391.385 38.6666 391.626 37.2782C393.156 37.2782 394.706 37.2782 396.337 37.2782C396.337 44.0098 396.337 50.6783 396.337 57.494Z" fill="#47BCCA"/>
<path d="M148.019 7.6804C147.919 4.0832 150.314 2.02165 153.354 2.00061C156.574 1.95854 158.829 4.0832 158.889 7.53314C158.95 10.6465 156.856 13.1709 153.515 13.234C150.636 13.255 147.959 11.2355 148.019 7.6804Z" fill="#47BCCA"/>
<path d="M393.981 34.4595C392.21 34.4595 391.143 33.4077 391.123 31.6407C391.103 29.8526 392.291 28.6325 394.002 28.6536C395.632 28.6746 396.84 29.9157 396.84 31.5986C396.84 33.3026 395.713 34.4385 393.981 34.4595Z" fill="#47BCCA"/>
<path d="M375.402 54.5909C375.402 56.1896 374.174 57.4728 372.604 57.4728C371.014 57.4938 369.766 56.1686 369.786 54.4857C369.806 52.8449 371.014 51.6038 372.564 51.6038C374.194 51.6038 375.422 52.887 375.402 54.5909Z" fill="#47BCCA"/>
</svg>
