<?xml version="1.0" encoding="utf-8"?>
<!-- Generator: Adobe Illustrator 25.3.1, SVG Export Plug-In . SVG Version: 6.00 Build 0)  -->
<svg version="1.1" id="Capa_1" xmlns="http://www.w3.org/2000/svg" xmlns:xlink="http://www.w3.org/1999/xlink" x="0px" y="0px"
	 viewBox="0 0 3072.7 689.6" style="enable-background:new 0 0 3072.7 689.6;" xml:space="preserve">
<g>
	<path style="fill:#0282A6;" d="M326.2,616.7c4.7-5.8,9.4-11.4,15.8-15.4c24.2-14.9,57-3.9,66.5,24.6c7.3,22-3.3,45.5-23.2,54.9
		c-21.2,10-47.9,3.8-60.4-20.5c-1.6-3.2-3.2-4.2-6.7-4.6c-10.7-1.4-21.6-2.7-32-5.4c-14.7-3.8-29.3-8.2-43.5-13.6
		c-27.9-10.5-53.6-25.1-77.3-43.2c-23.5-17.8-44.1-38.4-62.1-61.6c-20.3-26.4-36.2-55.3-47.5-86.5c-6.9-18.9-11.9-38.4-15.2-58.4
		c-3.8-23.2-5.1-46.6-3.8-70c0.8-14.6,2.7-29.1,5.6-43.5c3.6-17.7,8.5-35.1,14.8-52c5.4-14.6,12.2-28.6,19.7-42.3
		c20.7-37.7,48.1-69.6,81.5-96.5c26.4-21.2,55.6-37.7,87.3-49.8c15.6-6,31.7-10.7,48.1-14c14.7-3,29.6-4.8,44.7-6
		c19.5-1.6,38.9-0.7,58.2,1.4c20,2.2,39.7,6.5,59,12.5c24.8,7.7,48.3,18.3,70.5,31.6c6.8,4.1,13.5,8.4,19.8,13.3
		c8.4,6.4,10,17.4,4.4,26c-5.9,9.2-17.4,11.9-27,6.1c-9.1-5.5-18-11.4-27.2-16.7c-14-8.1-28.8-14.7-44.2-19.5
		c-13-4.1-26.2-7.8-39.6-10.8c-8.9-2-18.1-3-27.2-3.6c-18.4-1.3-36.9-1.4-55.4,0.4c-31.1,3.1-60.8,11.4-89.1,24.6
		c-43.6,20.3-79.7,49.7-108.5,88.2c-19.7,26.2-34.3,55.1-43.9,86.4c-5.8,18.9-9.3,38.3-11.1,58.1c-1.9,21.8-1,43.4,1.7,65
		c1.4,11.5,4,22.9,7.1,34c5.9,21.1,14,41.3,24.5,60.6c20.7,37.8,48.4,69.4,83.2,94.7c20.9,15.3,43.8,27.3,68.1,36.4
		c20.1,7.4,40.7,12.4,61.9,14.9C324.7,616.7,325.4,616.7,326.2,616.7z M365.6,620.5c-11.4-0.5-19.8,9.8-19.9,19.3
		c-0.1,10.7,8.6,19.6,19.4,19.8c11.1,0.2,20.2-8.6,20.2-19.6C385.2,631.7,378.4,620.3,365.6,620.5z"/>
	<path style="fill:#47BCCA;" d="M434.5,467.6c-59.4,30.2-115.4,25.9-169.4-12.1c-11.2,4.7-23,5.2-34.7,0.8c-9.5-3.6-17.1-9.9-22.4-18.6
		c-10.7-17.7-8.4-40.2,6.1-55.3c14.4-15,37.5-18.1,55.6-7.5c10.3,6,17.1,14.8,20.4,26.3c3.2,11.2,2,22.1-2.5,32.6
		c38.2,30.3,101.6,33.6,146.9-2.9c45.8-37,54.1-96.9,37.3-135.4c-5.7,0-11.4,0.5-17-0.1c-15.1-1.5-26.4-9.3-33.7-22.4
		c-14.1-25.5-2-59.2,29.7-66.4c30.2-6.8,54.1,16.1,55,41.7c0.3,9.2-1.1,17.9-6.2,25.6c-1.7,2.6-1.5,4.8-0.5,7.4
		c9,22.5,12.6,45.8,10,69.9c-3.3,30.4-14.1,57.8-34.1,81.2c-5.1,6.1-10.7,11.8-16.2,17.9c28.3,34.2,56.6,68.4,85.3,103.2
		c6.1-5.1,12.1-9.7,17.8-14.7c19.3-17.1,35.7-36.7,49.5-58.5c14.1-22.3,24.6-46.2,31.7-71.6c9.1-32.4,12-65.5,8.8-99
		c-2.1-22.2-7.2-43.8-14.6-64.9c-10.4-29.7-25.7-56.6-45.4-81c-4.7-5.9-6.4-12.1-3.7-19.6c3.8-10.7,20.2-16.6,29.9-4.9
		c7.4,8.9,14.2,18.3,20.7,27.9c16.2,23.9,28,50,36.6,77.5c5.4,17.2,8.7,35,11.1,52.9c2.9,22.2,3.1,44.5,1.1,66.7
		c-4.7,51.1-21.3,98.1-49.5,141c-14.5,22-31.5,41.9-51.2,59.4c-8.9,7.9-18.5,15.1-28,22.5c-2,1.6-4.5,2.7-7,3.7
		c-7.5,3-14,0.8-19.1-4.8c-6.4-7-12.3-14.5-18.4-21.8c-21-25.3-42-50.5-63-75.8c-4.9-5.8-9.7-11.7-14.5-17.5
		C436.1,469.8,435.2,468.6,434.5,467.6z M266.4,413.7c0-10-7.5-19.5-19.7-19.5c-10.2,0-19.2,7.2-19.7,19.6
		c-0.5,10.6,9.3,19.8,20.2,19.7C258,433.4,266.5,424.7,266.4,413.7z M441.3,250.9c0,10.9,8.5,19.4,19.4,19.5
		c10.8,0.1,19.6-8.6,19.7-19.4c0.1-10.9-8.8-19.8-19.8-19.8C449.8,231.3,441.3,240,441.3,250.9z"/>
	<path style="fill:#0282A6;" d="M2125.3,401.5c-15,0-29.8,0-45.3,0c-0.1-2.3-0.2-4.5-0.2-6.7c0-27.6,0-55.2-0.1-82.9c0-6.8-0.2-13.7-0.9-20.5
		c-1.2-10.4-4.3-20.3-13-27c-11.3-8.7-23.9-9.3-36.6-3.4c-15,7.1-21.9,19.9-23.5,35.8c-0.6,6.2-0.3,12.6-0.3,18.8
		c0,26.5,0,52.9,0,79.4c0,2,0,4.1,0,6.3c-15.7,0-30.6,0-46.2,0c0-2.6,0-4.8,0-7.1c0-30.3-0.1-60.6,0-90.9c0.1-10.7-1.8-20.8-7.4-30
		c-14.4-23.7-48.3-21.2-61.3,0.8c-5.4,9.1-7.7,18.9-7.6,29.4c0.1,30.3,0,60.6,0,90.9c0,2.2,0,4.5,0,7c-15.7,0-30.7,0-45.9,0
		c0-61.4,0-122.4,0-183.4c4.3-1.1,34.2-1.4,42.2-0.4c1,6.3,2.1,12.8,3.3,20.5c5.4-7,10.6-13.2,17.9-17c7.5-3.9,15.5-6.1,23.9-6.8
		c8.2-0.7,16.3-0.2,24.4,1.7c8.3,1.9,15.7,5.7,22.2,11.2c6.4,5.4,10.8,12.2,14.6,20.2c2.4-3,4.5-5.8,6.7-8.4
		c7.8-9.1,16.8-16.5,28.3-20.3c7.6-2.5,15.5-3.8,23.6-3.9c13.6-0.2,26.9,1.1,39.6,6.6c18.7,8.2,30.1,22.6,36.3,41.5
		c3.8,11.7,5.4,23.8,5.4,36c0.1,32.6,0,65.1,0,97.7C2125.6,398.2,2125.5,399.7,2125.3,401.5z"/>
	<path style="fill:#47BCCA;" d="M1146.2,401.6c-15.4,0-30.2,0-45.7,0c0-2.5,0-4.7,0-7c-0.1-32.4-0.1-64.8-0.2-97.1c0-8.9-2.4-17.3-6.9-25
		c-7.1-12.3-21.6-17.4-35.1-14.3c-16.6,3.8-26.3,14.8-30.6,31c-1.5,5.6-1.9,11.2-1.9,16.9c0.1,29.5,0,59,0,88.6c0,2.1,0,4.1,0,7
		c-15.1,0.3-29.9,0.1-45.3,0.1c-0.1-2.4-0.2-4.4-0.2-6.4c0-30.3,0-60.6,0-90.8c0-9.8-1.7-19.3-6.2-28.1
		c-13.5-26.9-48.7-24.2-61.7-3.9c-5.6,8.7-9,18-9,28.4c0,31-0.1,62.1-0.1,93.1c0,2.3,0,4.5,0,6.7c-4.3,1.4-35.3,1.9-45.1,0.8
		c-1.1-4.1-1.5-176.3-0.3-183.9c13.7,0,27.5,0,41.8,0c1.1,6.6,2.2,13,3.4,20.8c13.8-20.4,33.1-25.3,54.7-24
		c22.2,1.4,38.3,12.1,48.3,32.9c1.4-1.8,2.5-3,3.5-4.2c8.2-10.8,18-19.6,31-24.1c7.9-2.8,16.2-4,24.7-4.1c13.4-0.1,26.5,1.1,39,6.6
		c18.3,8,29.5,22,36,40.4c4.5,12.7,5.9,26,6.1,39.3c0.4,31.8,0.1,63.6,0.1,95.4C1146.5,398.1,1146.3,399.6,1146.2,401.6z"/>
	<path style="fill:#47BCCA;" d="M1525.9,239.5c0-32.9,0-65.6,0-98.7c15.6,0,30.5,0,45.8,0c0,87,0,173.7,0,260.8c-14.1,0-28,0-42.5,0
		c-0.9-7.6-1.8-15.1-2.8-23.4c-1.4,1-2.5,1.6-3.2,2.5c-7.3,10-17.1,16.7-28.6,20.8c-7.6,2.7-15.5,3.9-23.5,4.2
		c-20.8,0.7-40.5-3-58.3-14.4c-18-11.6-29.8-27.6-36.1-48.1c-5-16.2-5.5-32.7-3.9-49.2c1.6-16.2,6.3-31.7,16-45.1
		c11.6-16,26.8-26.7,45.9-31.7c9.4-2.5,18.9-4.2,28.7-4.2c16.8,0,32.4,4.2,46.5,13.3C1515.3,229.8,1520,234.6,1525.9,239.5z
		 M1469.8,363.3c29.8,0.3,53.2-21.8,53.3-53.3c0.2-31.8-22.8-54.3-53.1-54.3c-30.6-0.1-52,20.7-52.3,53.3
		C1417.4,341.3,1440.4,363.6,1469.8,363.3z"/>
	<path style="fill:#0282A6;" d="M2301.5,240.6c0.7-8,1.3-15.2,2-22.8c14.5,0,28.7,0,42.9,0c1.1,4.2,1.4,176.1,0.4,183.2
		c-4.1,1.2-36.6,1.4-42.9,0.2c-0.6-7.6-1.3-15.3-2.1-24.3c-1.6,1.7-2.6,2.7-3.4,3.7c-8.5,11.1-19.6,18.2-32.8,22.4
		c-10.9,3.5-21.9,5-33.2,4.1c-29.5-2.5-54.4-13.6-70.8-39.6c-7-11.1-11-23.2-13.2-36.1c-2-11.8-2.5-23.5-1.2-35.3
		c2.1-19.7,8.3-37.8,21.6-53c11.3-12.9,25.3-21.5,41.9-26c11.7-3.2,23.5-4.9,35.5-4.2c21.4,1.4,40,8.6,53.3,26.5
		C2299.8,239.7,2300.2,239.8,2301.5,240.6z M2247.1,365.3c12.5,0.2,23.8-3.2,33.5-10.9c18.6-14.8,25.2-42.3,16.8-65.3
		c-8-21.9-23.8-34-47.1-35c-22-1-39.7,7-51,26.7c-4.7,8.3-6.5,17.5-6.7,26.8c-0.3,12.2,2,23.9,8.9,34.2
		C2212.3,358.1,2228.1,364.9,2247.1,365.3z"/>
	<path style="fill:#47BCCA;" d="M1360.6,325.9c-24.4,0-48.2,0-71.9,0c-23.8,0-47.6,0-71.8,0c0.1,6,2.3,10.9,5,15.6
		c6.6,11.2,16.8,17.5,28.9,20.8c20.4,5.5,40,2.4,58.8-6.7c3.9-1.9,7.3-4.7,11.6-7.5c9.3,9.2,18.9,18.6,28.6,28.2
		c-0.9,1.1-1.5,2-2.3,2.7c-13.9,12.5-30.1,20.1-48.3,24.2c-17.2,3.8-34.4,4.2-51.6,1.5c-20.4-3.3-38.6-11.7-53.1-26.7
		c-9.8-10.1-16.6-22.2-20.6-35.7c-4.4-14.9-6-30.2-4.3-45.7c2.1-18.5,7.9-35.5,19.6-50.3c11.3-14.2,25.7-23.8,43.1-29.4
		c18-5.8,36.4-6.4,54.8-3.8c20.9,2.9,39.4,11.3,53.3,28c8,9.6,13.2,20.6,16.6,32.8C1361.6,290.8,1361.3,307.8,1360.6,325.9z
		 M1315.9,287.9c0.1-1.3,0.3-2.1,0.1-2.8c-2.8-12.8-9.6-22.5-22-27.8c-13.8-6-28-6.3-42.4-2.7c-15.6,3.9-26.5,13.4-32.7,28.3
		c-0.6,1.5-0.8,3.1-1.3,5C1250.8,287.9,1283.1,287.9,1315.9,287.9z"/>
	<path style="fill:#0282A6;" d="M742.6,336.8c0.1-14.4-0.7-30.8-3.2-47C733.7,253.1,723,218,706,184.9c-12.7-24.6-27.9-47.5-46.1-68.3
		c-1.9-2.1-3.7-4.3-5.3-6.7c-4.9-7.5-3.3-18.1,3.7-23.7c8.2-6.6,18.8-4.1,23.9,1.4c15.4,16.7,28.8,34.8,40.7,54.1
		c10.6,17.1,20,35,27.5,53.7c7,17.4,12.9,35.3,17.5,53.6c7.8,31.4,10.9,63.3,10.7,95.6c-0.1,18.7-1.8,37.3-4.8,55.7
		c-4.4,26.3-11.7,51.8-21.5,76.6c-12.2,31.1-28.6,59.9-48.4,86.8c-5.6,7.6-12.1,14.7-18,22.1c-6.6,8.3-24.4,8.8-29.8-4.7
		c-2.8-7-1.7-13.7,3.4-19.7c6-7.1,11.9-14.3,17.4-21.8c19.8-27,35.4-56.1,46.5-87.7c6.4-18.3,11.1-37.1,14.5-56.2
		C741.2,376.7,742.6,357.8,742.6,336.8z"/>
	<path style="fill:#0282A6;" d="M1813.9,236.9c-8.4,10-16.6,19.6-24.5,29c-6.4-3.7-12.2-7.7-18.5-10.7c-10.2-4.8-21.3-5.3-32.4-4.9
		c-6.7,0.3-13.2,1.2-19.3,4.2c-5.7,2.8-9.4,7-9.6,13.7c-0.1,7.1,3.7,11.7,9.7,14.8c6.9,3.6,14.4,4.8,22,5.1c11.8,0.5,23.5,2,35,4.7
		c10.9,2.6,20.9,6.9,29.6,14c10.8,8.9,15.5,20.9,16.7,34.4c2.8,32.4-18.4,53.8-44.2,61.8c-18.5,5.7-37.2,5.7-56,3.9
		c-24.5-2.4-45.5-12.7-62.9-30.3c-0.4-0.4-0.6-0.9-1.3-1.9c7.2-10.4,14.6-21,21.9-31.6c5.3,3.7,10.2,7.6,15.6,10.7
		c13.8,8,28.8,12.8,44.7,14.1c9.3,0.7,18.2-0.5,26.4-5.4c7.9-4.7,11.5-12.2,10-20c-1.1-5.4-4.5-8.7-9.3-10.7
		c-7.7-3.2-15.7-4.3-23.9-4.8c-16.8-1-33.2-3.9-48.6-11.3c-12.4-5.9-22.5-14.4-27.2-27.7c-6.7-18.8-4.3-36.3,8.8-51.8
		c8.3-9.7,19.2-15.2,31.1-19.2c17.6-5.8,35.6-6.1,53.7-4.2c19.2,1.9,36.4,9,51,21.9C1813,235.4,1813.2,236,1813.9,236.9z"/>
	<path style="fill:#0282A6;" d="M2557.8,257.4c-11.7,0-22.5,0-33.9,0c-0.6-13.2-0.2-26.1-0.2-39.5c11.3,0,22.2,0,33.9,0
		c0.5-15.9-0.1-31.2,0.3-47.2c15-2.3,29.9-3.6,45.5-5.1c0.4,6.2,0.2,11.8,0.2,17.4c0,5.5,0,11,0,16.6c0,5.7,0,11.4,0,17.8
		c5.7,0.4,11.1,0.2,16.6,0.2c5.7,0,11.4,0,17.1,0c5.5,0,11,0,16.8,0c0,13.4,0,26.3,0,39.8c-17,0-33.6,0-50.6,0
		c-0.1,2.5-0.3,4.4-0.3,6.2c0,23.4-0.1,46.8,0,70.3c0,5.1,0,10.2,2,15.1c3.6,8.8,10.3,12.7,19.3,13.6c6.6,0.7,12.8-1.2,18.9-3.3
		c1.7-0.6,3.5-1.1,5.8-1.9c4.2,12.9,8.2,25.3,12.4,38.2c-1.5,0.7-2.9,1.6-4.4,2.2c-16.1,5.9-32.6,7-49.5,5.1
		c-17.3-2-30.7-10.4-40.1-25c-4.6-7.1-7.2-15.2-8.4-23.4c-1.1-7.5-1.4-15.2-1.5-22.8c-0.2-22.5-0.1-44.9-0.1-67.4
		C2557.8,262.4,2557.8,260.3,2557.8,257.4z"/>
	<path style="fill:#0282A6;" d="M2416.2,401.6c-15.5,0-30.3,0-45,0c-1.1-4.4-1.5-175.5-0.5-183.3c4.1-1.1,31.5-1.5,41.9-0.5
		c1.1,6.1,2.2,12.3,3.4,19.6c1.9-2.2,3.1-3.5,4.2-4.9c9.9-13.1,23.4-18.8,39.4-19.7c12.1-0.7,23.9,0.2,35.4,4.6
		c7.3,2.8,15.3,7.4,20.4,13.1c-6.7,12.8-13.5,25.9-20.4,38.9c-3.3-2.1-6.1-4.1-9.1-5.6c-17.5-9.1-34.9-7.8-51.7,1.6
		c-8.3,4.7-12.9,12.7-15.7,21.6c-1.8,5.7-2.4,11.5-2.4,17.4c0.1,30.1,0,60.2,0,90.2C2416.2,396.8,2416.2,398.8,2416.2,401.6z"/>
	<path style="fill:#0282A6;" d="M600.1,328.4c-0.3,30-3.3,52.7-9.7,75c-8,27.7-20.7,52.9-37.9,76c-4.5,6-10.5,8.9-17.9,7.4
		c-7.1-1.4-11.9-5.8-14.1-12.7c-1.8-5.9-0.2-11.1,3.1-16.1c5.6-8.4,11.4-16.6,16.1-25.4c9.2-16.9,15.6-34.9,19.8-53.8
		c4.7-21.3,5.7-42.7,3.5-64.1c-3.7-36.6-16.5-70-38.4-99.7c-8.3-11.2-4.3-24.8,8.3-29.1c6.9-2.3,14.5,0,19.4,6.1
		c10.1,12.7,17.9,26.8,25,41.3c9.1,18.7,15.3,38.5,18.7,59C598.4,306.4,599.3,320.9,600.1,328.4z"/>
	<path style="fill:#47BCCA;" d="M1641.8,401.6c-15.1,0-29.9,0-45,0c0-61.5,0-122.7,0-184.7c14.9-0.4,29.8-0.1,45-0.2
		C1641.8,278.5,1641.8,339.7,1641.8,401.6z"/>
	<path style="fill:#47BCCA;" d="M3036.1,363.6c-25.3,0-49.8,0-74.7,0c0.6,7.8,4.8,12.7,10.8,16.1c8.8,4.9,18.3,5.3,27.7,2.7
		c5.4-1.5,10.5-4.2,16.2-6.6c4.1,4.4,8.8,9.3,13.8,14.6c-2.8,3.9-7.4,6.6-12.1,8.8c-16.6,7.7-33.7,8.8-51,2.6
		c-13.2-4.7-22.4-13.7-27-26.8c-5.3-15.1-5.3-30.3,1.8-45c7.1-14.7,19.4-22.5,35.1-25.5c9.7-1.9,19.3-1.2,28.8,1.6
		c16.2,4.8,25.5,15.9,29.6,31.8C3036.9,346.1,3036.4,354.5,3036.1,363.6z M2961.8,343.1c17.3,0,34,0,50.9,0c-0.6-7-4-11.9-9.8-14.8
		c-10.5-5.2-21-4.8-31.1,1C2966.7,332.2,2963.1,336.6,2961.8,343.1z"/>
	<path style="fill:#47BCCA;" d="M2837.6,306.7c9.7,0,18.5,0,28.3,0c6.5,23.3,13.1,46.8,19.6,70c6.1-23,12.2-46.4,18.5-70c8.7,0,17,0,26.2,0
		c-10,32.4-20.2,64.3-30.4,96.6c-9.6,0-19.1,0-29.3,0C2859.7,371.5,2848.8,339.4,2837.6,306.7z"/>
	<path style="fill:#47BCCA;" d="M2741.9,268.1c8.2,0,15.4,0,23.3,0c0,2.3,0,4.3,0,6.3c0,31.4,0,62.9,0,94.3c0,1,0,1.9,0,2.9
		c-0.4,10.9,4.1,14.1,13.2,12.8c0.5-0.1,1.1,0.1,1.9,0.2c0.2,0.9,0.5,1.8,0.5,2.7c0,4.6,0,9.1,0,13.9c-9.9,3.6-19.4,3.8-28.5-1
		c-6.2-3.3-9.2-9-10-15.8c-0.3-2.6-0.3-5.3-0.3-8c0-34.1,0-68.2,0-102.3C2741.9,272.3,2741.9,270.4,2741.9,268.1z"/>
	<path style="fill:#47BCCA;" d="M2826.1,402.7c-8,0-15.6,0-23.1,0c-1.2-4.2-1.5-89.5-0.3-96.1c7.6,0,15.3,0,23.4,0
		C2826.1,338.6,2826.1,370.3,2826.1,402.7z"/>
	<path style="fill:#47BCCA;" d="M1592.5,165.9c-0.5-17.1,11.4-26.9,26.5-27c16-0.2,27.2,9.9,27.5,26.3c0.3,14.8-10.1,26.8-26.7,27.1
		C1605.5,192.4,1592.2,182.8,1592.5,165.9z"/>
	<path style="fill:#47BCCA;" d="M2814.4,293.2c-8.8,0-14.1-5-14.2-13.4c-0.1-8.5,5.8-14.3,14.3-14.2c8.1,0.1,14.1,6,14.1,14
		C2828.6,287.7,2823,293.1,2814.4,293.2z"/>
	<path style="fill:#47BCCA;" d="M2722.1,388.9c0,7.6-6.1,13.7-13.9,13.7c-7.9,0.1-14.1-6.2-14-14.2c0.1-7.8,6.1-13.7,13.8-13.7
		C2716.1,374.7,2722.2,380.8,2722.1,388.9z"/>
</g>
</svg>
