<svg width="701" height="647" viewBox="0 0 701 647" fill="none" xmlns="http://www.w3.org/2000/svg">
<g opacity="0.1">
<path d="M509.796 77.4418C457.756 40.8214 396.401 21.5476 332.155 21.5476C161.581 21.5476 22.8086 160.32 22.8086 330.893C22.8086 485.406 138.131 617.111 291.037 637.669C292.001 637.669 292.643 637.991 293.607 637.991C294.892 637.991 295.855 637.991 297.14 637.669C302.601 652.125 315.451 663.368 331.833 665.616C333.761 665.938 336.009 665.938 337.937 665.938C359.459 665.938 377.769 649.876 380.982 628.675C382.588 617.111 379.697 605.867 372.63 596.552C365.563 587.236 355.604 581.454 344.04 579.848C342.113 579.527 339.864 579.527 337.937 579.527C322.196 579.527 308.062 588.2 300.353 601.37C299.068 600.728 297.783 600.407 296.177 600.407C161.902 582.096 61.0351 466.453 61.0351 330.893C61.0351 181.2 182.782 59.4529 332.476 59.4529C388.691 59.4529 442.337 76.4781 488.273 108.601C496.946 114.705 508.511 112.456 514.614 104.104C520.717 95.4308 518.469 83.5452 509.796 77.4418ZM318.984 620.002C320.269 610.686 328.3 603.619 337.615 603.619C338.579 603.619 339.543 603.619 340.185 603.94C350.465 605.546 357.853 614.862 356.247 625.463C354.962 634.778 346.931 641.845 337.615 641.845C336.652 641.845 335.688 641.845 335.046 641.524C324.766 639.918 317.699 630.281 318.984 620.002Z" fill="white"/>
<path d="M631.862 576.314C628.007 576.314 623.831 575.029 620.619 572.138C613.552 566.035 612.909 555.113 619.013 548.046C670.731 488.939 699.32 412.807 699.32 334.106C699.32 253.798 669.767 177.024 616.443 117.274C610.018 110.207 610.661 99.2855 617.728 93.1821C624.795 86.7575 635.717 87.4 641.82 94.4671C700.927 160.32 733.371 245.446 733.371 334.106C733.371 421.159 701.89 505.001 644.39 570.532C641.178 574.387 636.68 576.314 631.862 576.314Z" fill="white"/>
<path d="M503.049 476.09C499.515 476.09 495.981 475.126 492.769 472.556C485.06 466.774 483.775 456.174 489.236 448.464C514.613 414.414 528.105 373.617 528.105 330.893C528.105 288.491 514.613 248.016 489.557 213.965C483.775 206.256 485.381 195.655 493.09 190.194C500.8 184.412 511.401 186.018 516.862 193.728C546.415 233.881 562.155 281.103 562.155 331.215C562.155 381.327 546.415 429.19 516.219 469.344C513.328 473.52 508.188 476.09 503.049 476.09Z" fill="white"/>
<path d="M580.148 143.294C574.044 135.906 563.444 134.942 556.056 141.046C548.667 147.149 547.703 157.75 553.807 165.138C592.355 211.717 613.556 270.502 613.556 331.215C613.556 413.45 574.687 490.867 509.156 540.015L426.92 440.433C457.116 413.771 476.069 375.223 476.069 331.857C476.069 311.62 471.893 292.346 464.505 274.999C468.359 269.538 471.25 262.792 472.214 255.725C475.426 231.954 459.044 210.11 435.272 206.577C433.345 206.256 431.096 206.256 429.169 206.256C407.647 206.256 389.336 222.317 386.124 243.518C384.518 255.083 387.409 266.326 394.476 275.642C401.543 284.957 411.501 290.74 423.066 292.346C424.993 292.667 427.242 292.667 429.169 292.667C433.024 292.667 436.557 292.024 440.412 291.061C445.231 303.589 447.801 317.08 447.801 331.215C447.801 395.14 395.761 447.179 331.836 447.179C306.137 447.179 282.366 438.827 263.414 424.693C265.341 420.517 266.947 416.02 267.59 411.523C269.196 399.958 266.305 388.715 259.238 379.399C252.171 370.084 242.212 364.301 230.648 362.695C228.721 362.374 226.472 362.374 224.545 362.374C203.022 362.374 184.712 378.436 181.5 399.637C178.287 423.408 194.67 445.252 218.441 448.785C220.369 449.107 222.617 449.107 224.545 449.107C230.969 449.107 237.073 447.822 242.534 445.252C267.268 464.526 298.107 476.09 331.836 476.09C358.177 476.09 382.591 469.023 403.792 456.816L497.913 570.211C501.125 574.387 506.265 576.635 511.083 576.635C514.295 576.635 517.829 575.672 520.72 573.423C600.385 518.171 647.607 427.584 647.607 330.893C647.607 262.792 623.835 195.976 580.148 143.294ZM429.169 268.896C428.205 268.896 427.242 268.896 426.599 268.575C416.32 266.968 408.932 257.653 410.538 247.052C411.823 237.736 419.853 230.669 429.169 230.669C430.133 230.669 431.096 230.669 431.739 230.99C442.018 232.597 449.407 241.912 447.801 252.513C446.516 261.829 438.485 268.896 429.169 268.896ZM243.176 408.631C241.891 417.947 233.86 425.014 224.545 425.014C223.581 425.014 222.617 425.014 221.975 424.693C211.695 423.087 204.307 413.771 205.913 403.171C207.198 393.855 215.229 386.788 224.545 386.788C225.508 386.788 226.472 386.788 227.114 387.109C237.394 388.715 244.461 398.352 243.176 408.631Z" fill="white"/>
</g>
</svg>
